<svg width="14" height="14" viewBox="0 0 14 14" fill="none" xmlns="http://www.w3.org/2000/svg">
<path fill-rule="evenodd" clip-rule="evenodd" d="M0.722334 0.722292C0.928614 0.516074 1.20835 0.400227 1.50003 0.400227C1.79171 0.400227 2.07145 0.516074 2.27773 0.722292L7.00003 5.44459L11.7223 0.722292C11.8238 0.617231 11.9452 0.53343 12.0794 0.47578C12.2136 0.41813 12.3579 0.387785 12.504 0.386516C12.6501 0.385247 12.7949 0.413079 12.9301 0.468388C13.0653 0.523697 13.1881 0.605375 13.2914 0.708657C13.3946 0.811939 13.4763 0.934756 13.5316 1.06994C13.5869 1.20513 13.6148 1.34998 13.6135 1.49603C13.6122 1.64209 13.5819 1.78643 13.5242 1.92064C13.4666 2.05484 13.3828 2.17622 13.2777 2.27769L8.55543 6.99999L13.2777 11.7223C13.4781 11.9298 13.589 12.2076 13.5865 12.496C13.584 12.7844 13.4683 13.0603 13.2643 13.2643C13.0604 13.4682 12.7845 13.5839 12.4961 13.5864C12.2077 13.5889 11.9298 13.4781 11.7223 13.2777L7.00003 8.55539L2.27773 13.2777C2.07027 13.4781 1.79241 13.5889 1.50399 13.5864C1.21558 13.5839 0.939682 13.4682 0.735733 13.2643C0.531784 13.0603 0.416098 12.7844 0.413592 12.496C0.411086 12.2076 0.52196 11.9298 0.722334 11.7223L5.44463 6.99999L0.722334 2.27769C0.516116 2.07141 0.400269 1.79167 0.400269 1.49999C0.400269 1.20831 0.516116 0.928572 0.722334 0.722292Z" fill="#373737"/>
</svg>
