<svg width="30" height="27" viewBox="0 0 30 27" fill="none" xmlns="http://www.w3.org/2000/svg">
<path d="M15 0.925003C22.7803 0.925003 29.0875 5.84087 29.0875 11.9065C29.0875 17.9709 22.7803 22.8867 15 22.8867C14.2253 22.8872 13.4513 22.8379 12.6829 22.7392L6.76885 26.6072C6.09667 26.9627 5.8592 26.9238 6.13558 26.0531L7.33235 21.1184C3.46835 19.1596 0.912476 15.7652 0.912476 11.9065C0.912476 5.84221 7.21965 0.925003 15 0.925003ZM22.9252 11.7388L24.8974 9.8283C25.0113 9.71011 25.0747 9.55237 25.0745 9.3883C25.0743 9.22422 25.0105 9.06663 24.8964 8.94872C24.7823 8.8308 24.6269 8.76177 24.4629 8.75617C24.2989 8.75056 24.1392 8.80881 24.0173 8.91865L21.4306 11.4222V9.35335C21.4306 9.1854 21.3639 9.02433 21.2451 8.90557C21.1263 8.78681 20.9653 8.72009 20.7973 8.72009C20.6294 8.72009 20.4683 8.78681 20.3495 8.90557C20.2308 9.02433 20.164 9.1854 20.164 9.35335V12.784C20.1403 12.8819 20.1403 12.984 20.164 13.0818V15.0125C20.164 15.1805 20.2308 15.3415 20.3495 15.4603C20.4683 15.5791 20.6294 15.6458 20.7973 15.6458C20.9653 15.6458 21.1263 15.5791 21.2451 15.4603C21.3639 15.3415 21.4306 15.1805 21.4306 15.0125V13.1838L22.0035 12.6297L23.9194 15.3573C23.9672 15.4254 24.028 15.4834 24.0982 15.528C24.1685 15.5726 24.2468 15.603 24.3288 15.6173C24.4108 15.6316 24.4948 15.6297 24.576 15.6115C24.6572 15.5934 24.7341 15.5594 24.8022 15.5116C24.8703 15.4638 24.9283 15.403 24.9729 15.3327C25.0175 15.2625 25.0478 15.1841 25.0622 15.1022C25.0765 15.0202 25.0745 14.9362 25.0564 14.855C25.0383 14.7737 25.0043 14.6969 24.9565 14.6288L22.9252 11.7375V11.7388ZM18.9566 14.3202H16.9977V9.37348C16.9902 9.21074 16.9203 9.05716 16.8025 8.94465C16.6847 8.83213 16.528 8.76935 16.3651 8.76935C16.2022 8.76935 16.0456 8.83213 15.9278 8.94465C15.8099 9.05716 15.74 9.21074 15.7325 9.37348V14.9535C15.7325 15.3023 16.0143 15.5867 16.3644 15.5867H18.9566C19.1245 15.5867 19.2856 15.52 19.4043 15.4013C19.5231 15.2825 19.5898 15.1214 19.5898 14.9535C19.5898 14.7855 19.5231 14.6244 19.4043 14.5057C19.2856 14.3869 19.1245 14.3202 18.9566 14.3202ZM11.0984 12.8551L12.0322 10.5649L12.8882 12.8551H11.0984ZM14.4834 13.5098L14.4861 13.4884C14.4858 13.3288 14.4249 13.1754 14.3157 13.059L12.9123 9.30237C12.8535 9.12335 12.7415 8.96654 12.5911 8.85291C12.4408 8.73927 12.2594 8.67421 12.0711 8.66642C11.8815 8.66559 11.696 8.72252 11.5395 8.82966C11.383 8.93679 11.2629 9.08904 11.195 9.26615L8.9665 14.7334C8.93505 14.8104 8.91907 14.8929 8.91948 14.976C8.91989 15.0592 8.93668 15.1415 8.96888 15.2182C9.00109 15.2948 9.04808 15.3644 9.10718 15.423C9.16628 15.4815 9.23633 15.5278 9.31332 15.5592C9.39032 15.5907 9.47275 15.6067 9.55592 15.6063C9.63909 15.6058 9.72137 15.5891 9.79805 15.5569C9.87473 15.5246 9.94432 15.4777 10.0028 15.4186C10.0614 15.3595 10.1077 15.2894 10.1391 15.2124L10.5819 14.1216H13.3591L13.7603 15.195C13.7875 15.2752 13.8306 15.3491 13.887 15.4124C13.9434 15.4757 14.0119 15.527 14.0884 15.5633C14.165 15.5996 14.2481 15.6202 14.3327 15.6238C14.4174 15.6275 14.5019 15.6141 14.5813 15.5844C14.6607 15.5548 14.7333 15.5095 14.7949 15.4513C14.8565 15.3931 14.9057 15.3231 14.9398 15.2455C14.9738 15.1679 14.9919 15.0843 14.9931 14.9995C14.9942 14.9148 14.9783 14.8307 14.9463 14.7522L14.4834 13.5098ZM10.0264 9.38019C10.0264 9.21247 9.95988 9.0516 9.84141 8.93287C9.72294 8.81415 9.56221 8.74728 9.39449 8.74692H5.04078C4.87283 8.74692 4.71176 8.81364 4.593 8.9324C4.47424 9.05116 4.40752 9.21223 4.40752 9.38019C4.40752 9.54814 4.47424 9.70921 4.593 9.82797C4.71176 9.94674 4.87283 10.0135 5.04078 10.0135H6.59712V15.0259C6.59712 15.1939 6.66384 15.3549 6.7826 15.4737C6.90136 15.5925 7.06243 15.6592 7.23038 15.6592C7.39834 15.6592 7.55941 15.5925 7.67817 15.4737C7.79693 15.3549 7.86365 15.1939 7.86365 15.0259V10.0135H9.39315C9.5611 10.0135 9.72218 9.94674 9.84094 9.82797C9.9597 9.70921 10.0264 9.54814 10.0264 9.38019Z" fill="black"/>
</svg>
