<svg width="23" height="24" viewBox="0 0 23 24" fill="none" xmlns="http://www.w3.org/2000/svg">
<path d="M22.3743 9.8771C22.5158 10.6349 22.5928 11.4273 22.5928 12.2541C22.5928 18.7218 18.2642 23.3206 11.7265 23.3206C10.2397 23.3211 8.76743 23.0285 7.39374 22.4598C6.02006 21.891 4.77191 21.0572 3.7206 20.0059C2.6693 18.9546 1.83544 17.7064 1.26669 16.3327C0.697938 14.9591 0.405431 13.4868 0.405884 12C0.405431 10.5132 0.697938 9.04094 1.26669 7.66726C1.83544 6.29357 2.6693 5.04542 3.7206 3.99411C4.77191 2.94281 6.02006 2.10896 7.39374 1.5402C8.76743 0.971451 10.2397 0.678945 11.7265 0.679398C14.7832 0.679398 17.3373 1.8041 19.2969 3.6303L16.1057 6.82155V6.8135C14.9177 5.6819 13.4101 5.10115 11.7265 5.10115C7.99129 5.10115 4.95529 8.25675 4.95529 11.9931C4.95529 15.7283 7.99129 18.8908 11.7265 18.8908C15.1155 18.8908 17.4224 16.9531 17.8962 14.2919H11.7265V9.8771H22.3755H22.3743Z" fill="white"/>
</svg>
